<svg xmlns="http://www.w3.org/2000/svg" xmlns:xlink="http://www.w3.org/1999/xlink" xmlns:svgjs="http://svgjs.dev/svgjs" version="1.1" viewBox="0 0 640 400" matcher="0.3231543370613258"><g viewBox="0 0 640 400" matcher="0.3231543370613258"><g matcher="0.3231543370613258"><g matcher="0.3231543370613258"><g matcher="0.3231543370613258"><svg xmlns="http://www.w3.org/2000/svg" xmlns:xlink="http://www.w3.org/1999/xlink" viewBox="0 0 640 400" data-background-color="#6936f5" preserveAspectRatio="xMidYMid meet" height="400" width="640"><g id="tight-bounds" transform="matrix(1,0,0,1,157.5186147186147,76.4)"><svg viewBox="0 0 324.9627705627706 247.2" height="247.2" width="324.9627705627706"><g><svg viewBox="0 0 324.9627705627706 247.2" height="247.2" width="324.9627705627706"><g><svg viewBox="0 0 324.9627705627706 247.2" height="247.2" width="324.9627705627706"><g id="textblocktransform"><svg viewBox="0 0 324.9627705627706 247.2" height="247.2" width="324.9627705627706" id="textblock"><g><svg viewBox="0 0 324.9627705627706 247.2" height="247.2" width="324.9627705627706"><g transform="matrix(1,0,0,1,0,0)"><svg width="324.9627705627706" viewBox="0.75 -31.700000762939453 45.54999923706055 34.650001525878906" height="247.2" data-palette-color="#854fee"><path d="M9.35-1.25L9.35-1.25Q4.95 2.15 2.9 2.15L2.9 2.15Q1.8 2.15 1.28 1.07 0.75 0 0.75-1.25L0.75-1.25Q0.75-3.65 2.78-8.45 4.8-13.25 6.65-13.25L6.65-13.25Q7.6-13.25 8.28-9.5 8.95-5.75 9.65-4.05L9.65-4.05Q13.05-7.65 19.5-16.05L19.5-16.05Q27.6-26.7 30.25-27.7L30.25-27.7Q31.15-28.05 32.1-28.05 33.05-28.05 33.68-27.65 34.3-27.25 34.3-26.65L34.3-26.65Q34.3-25.8 32.85-25.65L32.85-25.65Q31.1-24.7 27.45-21.05L27.45-21.05Q23.8-17.5 21.6-14.4L21.6-14.4Q16.25-6.95 10.6-2.25L10.6-2.25Q13.4 1.9 19.4 1.9L19.4 1.9Q20.05 1.9 21.35 1.8L21.35 1.8Q35.25 0.5 41.05-10.25L41.05-10.25Q43.4-14.55 43.4-18.75 43.4-22.95 40.35-26.3L40.35-26.3Q37.9-29.05 35.02-29.7 32.15-30.35 29.15-30.35L29.15-30.35Q21.45-30.35 14.95-26.8L14.95-26.8Q8.1-23.05 8.1-18.4L8.1-18.4Q8.1-17.15 8.78-16.35 9.45-15.55 9.7-15.45L9.7-15.45 9.4-15.45Q8.1-15.7 7.1-16.75L7.1-16.75Q6-18.05 6-19.5L6-19.5Q6-24.5 12.28-28.1 18.55-31.7 27-31.7L27-31.7Q30.9-31.7 35-30.8 39.1-29.9 42.45-26.5L42.45-26.5Q46.3-22.5 46.3-17.45L46.3-17.45Q46.3-13.7 44.1-9.7L44.1-9.7Q40.3-2.8 32.75 0.4L32.75 0.4Q26.7 2.95 19.7 2.95 12.7 2.95 9.35-1.25ZM2.55-1.45L2.55-1.45Q2.55 0.1 3.15 1.25L3.15 1.25Q5.3 0.3 8.35-2.7L8.35-2.7Q6.9-5.1 6.53-6.48 6.15-7.85 6-10.1L6-10.1Q2.55-5.15 2.55-1.45ZM9.7-15.45L9.7-15.45Q9.75-15.45 9.8-15.5L9.8-15.5Q9.8-15.4 9.78-15.4 9.75-15.4 9.7-15.45Z" opacity="1" transform="matrix(1,0,0,1,0,0)" fill="#854fee" class="wordmark-text-0" data-fill-palette-color="primary" id="text-0"/></svg></g></svg></g></svg></g></svg></g></svg></g><defs/></svg><rect width="324.9627705627706" height="247.2" fill="none" stroke="none" visibility="hidden"/></g></svg></g></g></g></g></svg>