<svg xmlns="http://www.w3.org/2000/svg" xmlns:xlink="http://www.w3.org/1999/xlink" xmlns:svgjs="http://svgjs.dev/svgjs" version="1.1" matcher="0.1351384258036903" viewBox="122.26 102.49 395.48 195.02"><g viewBox="0 0 640 400" matcher="0.1351384258036903"><g matcher="0.1351384258036903"><g matcher="0.1351384258036903"><g matcher="0.1351384258036903"><svg xmlns="http://www.w3.org/2000/svg" xmlns:xlink="http://www.w3.org/1999/xlink" viewBox="0 0 640 400" data-background-color="#6936f5" preserveAspectRatio="xMidYMid meet" height="400" width="640"><g id="tight-bounds" transform="matrix(1,0,0,1,122.24000000000001,102.4887446300716)"><svg viewBox="0 0 395.52 195.0225107398568" height="195.0225107398568" width="395.52"><g><svg viewBox="0 0 395.52 195.0225107398568" height="195.0225107398568" width="395.52"><g><svg viewBox="0 0 395.52 195.0225107398568" height="195.0225107398568" width="395.52"><g id="textblocktransform"><svg viewBox="0 0 395.52 195.0225107398568" height="195.0225107398568" width="395.52" id="textblock"><g><svg viewBox="0 0 395.52 195.0225107398568" height="195.0225107398568" width="395.52"><g transform="matrix(1,0,0,1,0,0)"><svg width="395.52" viewBox="0.25 -37.54999923706055 104.73999786376953 51.650001525878906" height="195.0225107398568" data-palette-color="#ffffff"><path d="M11.15 1.3L11.15 1.3Q8.3 1.3 5.8 0.03 3.3-1.25 2-3.85L2-3.85Q1.2-5.35 1.2-7L1.2-7Q1.2-8 1.68-8.88 2.15-9.75 3.25-9.75L3.25-9.75Q4-9.75 5.45-9.25 6.9-8.75 8.68-7.98 10.45-7.2 12.23-6.35 14-5.5 15.45-4.75 16.9-4 17.7-3.6L17.7-3.6Q19.3-6.05 20.55-9.1 21.8-12.15 22.88-15.45 23.95-18.75 25.1-21.98 26.25-25.2 27.7-28.05 29.15-30.9 31.15-33L31.15-33Q27.65-33.45 24.2-33.45L24.2-33.45Q22.05-33.45 19.35-33.23 16.65-33 13.8-32.38 10.95-31.75 8.4-30.65 5.85-29.55 4.03-27.85 2.2-26.15 1.55-23.65L1.55-23.65Q1.4-23 1.4-22.3L1.4-22.3Q1.4-21.05 1.9-19.95 2.4-18.85 3.65-18.45L3.65-18.45 3.8-18.45Q4.2-18.45 4.58-18.53 4.95-18.6 5.3-18.6L5.3-18.6Q5.35-18.6 5.5-18.57 5.65-18.55 5.65-18.45L5.65-18.45Q5.65-18.1 5.1-17.9 4.55-17.7 4.3-17.7L4.3-17.7Q3.45-17.7 2.85-18.1 2.25-18.5 1.9-18.5L1.9-18.5 1.75-18.5Q1.65-18.4 1.6-18.25 1.55-18.1 1.35-18.1L1.35-18.1Q1.05-18.1 0.8-18.63 0.55-19.15 0.4-19.78 0.25-20.4 0.25-20.65L0.25-20.65Q0.25-21.2 0.33-21.78 0.4-22.35 0.5-22.9L0.5-22.9Q1.2-25.85 3.08-28 4.95-30.15 7.58-31.6 10.2-33.05 13.23-33.9 16.25-34.75 19.28-35.13 22.3-35.5 24.9-35.5L24.9-35.5Q27-35.5 29.1-35.35 31.2-35.2 33.25-34.8L33.25-34.8Q34.95-35.95 36.8-36.75 38.65-37.55 40.7-37.55L40.7-37.55Q41.1-37.55 41.45-37.5 41.8-37.45 42.15-37.3L42.15-37.3Q42.4-37.25 43-36.93 43.6-36.6 43.6-36.3L43.6-36.3Q43.6-36 43.38-36.02 43.15-36.05 43.15-35.75L43.15-35.75Q43.15-35.4 43.5-34.83 43.85-34.25 43.85-33.45L43.85-33.45Q43.85-33.15 43.65-32.58 43.45-32 43.05-32L43.05-32Q42.9-32 42.9-32.3L42.9-32.3Q42.9-32.7 43.03-33.15 43.15-33.6 43.15-34L43.15-34Q43.15-34.1 43.05-34.35 42.95-34.6 42.9-34.7L42.9-34.7Q42.4-35.65 41.28-36.05 40.15-36.45 39.15-36.45L39.15-36.45Q37.9-36.45 36.95-35.8 36-35.15 35.1-34.4L35.1-34.4Q38.05-33.6 40.75-31.98 43.45-30.35 45.58-28.05 47.7-25.75 48.95-22.93 50.2-20.1 50.2-16.85L50.2-16.85Q50.2-13.8 48.98-11.15 47.75-8.5 45.63-6.38 43.5-4.25 40.83-2.73 38.15-1.2 35.25-0.4 32.35 0.4 29.55 0.4L29.55 0.4Q26.65 0.4 23.83-0.18 21-0.75 18.3-1.75L18.3-1.75Q16.9-0.35 15 0.48 13.1 1.3 11.15 1.3ZM29.55-0.85L29.55-0.85Q33.1-0.85 36.35-1.9 39.6-2.95 42.18-5 44.75-7.05 46.23-10 47.7-12.95 47.7-16.75L47.7-16.75Q47.7-19.75 46.48-22.33 45.25-24.9 43.2-27 41.15-29.1 38.55-30.53 35.95-31.95 33.25-32.6L33.25-32.6Q32.25-31.3 31.3-29.38 30.35-27.45 29.48-25.33 28.6-23.2 27.88-21.13 27.15-19.05 26.55-17.45L26.55-17.45Q25.2-13.6 23.5-9.95 21.8-6.3 19.4-2.95L19.4-2.95Q21.8-2.05 24.38-1.45 26.95-0.85 29.55-0.85ZM12 0.2L12 0.2Q13.45 0.2 14.65-0.6 15.85-1.4 16.75-2.45L16.75-2.45Q15.8-3 14.18-3.9 12.55-4.8 10.75-5.7 8.95-6.6 7.33-7.2 5.7-7.8 4.65-7.8L4.65-7.8Q4.1-7.8 3.68-7.55 3.25-7.3 3.25-6.6L3.25-6.6Q3.25-5.55 4.13-4.4 5-3.25 6.18-2.3 7.35-1.35 8.2-0.9L8.2-0.9Q9.7-0.1 11.45 0.15L11.45 0.15Q11.65 0.2 12 0.2ZM60.6-21.5L60.6-21.5Q60.2-21.5 59.37-21.83 58.55-22.15 58.55-22.65L58.55-22.65Q58.55-22.7 58.57-22.73 58.6-22.75 58.6-22.8L58.6-22.8Q58.85-23.3 59.72-23.4 60.6-23.5 61.05-23.7L61.05-23.7Q62.05-24.1 63-24.35 63.95-24.6 64.8-25.25L64.8-25.25Q65-25.15 65-25.05L65-25.05Q65-24.85 64.57-24.5 64.15-24.15 64-23.9L64-23.9Q63.8-23.6 63.12-23.03 62.45-22.45 61.7-21.98 60.95-21.5 60.6-21.5ZM52.15 0.15L52.15 0.15Q51.35 0.15 51.05-0.25 50.75-0.65 50.75-1.4L50.75-1.4Q50.75-3.05 51.42-5.4 52.1-7.75 52.95-10.18 53.8-12.6 54.3-14.5L54.3-14.5Q54.5-15.2 55.27-15.48 56.05-15.75 56.6-16.15L56.6-16.15Q57.4-16.7 58.3-17.07 59.2-17.45 60.2-17.45L60.2-17.45Q60.45-17.45 60.52-17.35 60.6-17.25 60.6-17.2L60.6-17.2Q60.6-16.9 60.25-16.9L60.25-16.9Q59.55-16.9 58.8-16.07 58.05-15.25 57.3-13.95 56.55-12.65 55.95-11.25 55.35-9.85 54.9-8.68 54.45-7.5 54.3-6.95L54.3-6.95Q54.05-6.15 53.8-5.08 53.55-4 53.55-3.1L53.55-3.1Q53.55-2.75 53.65-2.27 53.75-1.8 54.25-1.8L54.25-1.8Q54.6-1.8 55-2.05L55-2.05Q56.1-2.7 57.17-3.83 58.25-4.95 59.17-6.28 60.1-7.6 60.65-8.7L60.65-8.7Q60.75-8.65 60.75-8.5L60.75-8.5Q60.75-8.2 60.4-7.63 60.05-7.05 59.6-6.4 59.15-5.75 58.77-5.25 58.4-4.75 58.4-4.65L58.4-4.65Q58.35-4.25 58.25-4.08 58.15-3.9 57.95-3.5L57.95-3.5Q57.35-2.9 56.35-2.02 55.35-1.15 54.25-0.5 53.15 0.15 52.15 0.15ZM60.55 0.05L60.55 0.05Q59.75 0.05 59.42-0.45 59.09-0.95 59.07-1.65 59.05-2.35 59.05-2.95L59.05-2.95Q59.05-3.9 59.22-5.73 59.4-7.55 59.75-9.58 60.09-11.6 60.67-13.28 61.25-14.95 62.05-15.55L62.05-15.55Q62.84-16.15 64.07-16.48 65.3-16.8 66.25-16.8L66.25-16.8Q66.34-16.8 66.5-16.7 66.64-16.6 66.7-16.5L66.7-16.5 66.7-16.35Q66.64-16.2 66.57-16.23 66.5-16.25 66.39-16.25L66.39-16.25Q65.45-16.25 64.64-15.3 63.84-14.35 63.25-13 62.65-11.65 62.27-10.35 61.9-9.05 61.75-8.35L61.75-8.35Q61.55-7.4 61.45-6.4 61.34-5.4 61.34-4.4L61.34-4.4Q61.34-3.9 61.47-3.13 61.59-2.35 62.3-2.35L62.3-2.35Q63-2.35 63.87-3.1 64.75-3.85 65.25-4.35L65.25-4.35Q67.5-6.75 68.9-9.65 70.3-12.55 71.3-15.6L71.3-15.6Q71.45-16.05 71.65-16.4 71.84-16.75 72.3-17L72.3-17Q72.5-17.1 72.84-17.28 73.2-17.45 73.4-17.45L73.4-17.45Q73.7-17.45 73.7-17.05L73.7-17.05Q73.7-16.5 73.22-15.5 72.75-14.5 72.5-14L72.5-14Q71.95-13 71-11.28 70.05-9.55 68.8-7.6 67.55-5.65 66.14-3.93 64.75-2.2 63.3-1.07 61.84 0.05 60.55 0.05ZM67.49 14.1L67.49 14.1Q67.24 14.1 66.37 14 65.49 13.9 64.72 13.68 63.94 13.45 63.94 13.15L63.94 13.15Q63.94 13.15 63.94 13.1 63.94 13.05 63.99 13.05L63.99 13.05Q64.04 13.05 64.04 13.08 64.04 13.1 64.04 13.1L64.04 13.1 64.39 13.15Q64.19 12.7 64.19 12L64.19 12Q64.19 11.65 64.27 11.13 64.34 10.6 64.49 10.25L64.49 10.25Q64.54 10.15 64.84 9.65 65.14 9.15 65.47 8.7 65.79 8.25 65.84 8.25L65.84 8.25 65.84 8.3Q65.84 8.35 65.49 9.03 65.14 9.7 65.14 10.4L65.14 10.4Q65.14 11.2 65.72 11.9 66.29 12.6 67.14 13.03 67.99 13.45 68.74 13.45L68.74 13.45Q70.19 13.45 71.54 12.25 72.89 11.05 74.14 9.1 75.39 7.15 76.47 4.8 77.54 2.45 78.39 0.1 79.24-2.25 79.89-4.25 80.54-6.25 80.89-7.4L80.89-7.4Q80.89-7.45 80.92-7.48 80.94-7.5 80.94-7.55L80.94-7.55Q80.94-7.7 80.84-7.7L80.84-7.7Q80.79-7.7 80.69-7.6L80.69-7.6Q79.14-5.55 77.52-3.58 75.89-1.6 73.64-0.3L73.64-0.3Q73.29-0.1 72.84 0.1 72.39 0.3 71.99 0.3L71.99 0.3Q71.04 0.3 71.04-1.3L71.04-1.3Q71.04-2.4 71.72-4.08 72.39-5.75 73.32-7.7 74.24-9.65 74.92-11.53 75.59-13.4 75.59-14.9L75.59-14.9Q75.59-15.1 75.52-15.35 75.44-15.6 75.19-15.6L75.19-15.6Q74.84-15.6 74.24-15.13 73.64-14.65 72.99-13.95 72.34-13.25 71.87-12.6 71.39-11.95 71.24-11.6L71.24-11.6Q71.04-11.7 71.04-11.85L71.04-11.85Q71.04-12.3 71.92-13.28 72.79-14.25 73.99-15.33 75.19-16.4 76.29-17.15 77.39-17.9 77.84-17.9L77.84-17.9Q78.39-17.9 78.57-17.15 78.74-16.4 78.74-16L78.74-16Q78.74-15.05 78.32-13.63 77.89-12.2 77.24-10.58 76.59-8.95 75.97-7.53 75.34-6.1 74.94-5.15L74.94-5.15Q74.84-4.8 74.52-4.03 74.19-3.25 74.19-2.8L74.19-2.8Q74.19-2.05 74.74-2.05L74.74-2.05Q75.29-2.05 76.07-2.73 76.84-3.4 77.19-3.8L77.19-3.8Q79.34-6.15 80.92-9.1 82.49-12.05 83.49-15.1L83.49-15.1Q83.64-15.5 83.67-15.68 83.69-15.85 84.09-16.1L84.09-16.1Q84.24-16.2 85.02-16.65 85.79-17.1 86.54-17.53 87.29-17.95 87.29-17.95L87.29-17.95Q87.34-17.95 87.34-17.85L87.34-17.85Q87.34-17.7 87.19-17.5 87.04-17.3 86.94-17.2L86.94-17.2Q86.54-16.55 86.12-15.45 85.69-14.35 85.32-13.25 84.94-12.15 84.69-11.4L84.69-11.4Q83.69-8.4 82.74-5.4 81.79-2.4 80.74 0.55L80.74 0.55Q79.99 2.65 78.77 5 77.54 7.35 75.89 9.43 74.24 11.5 72.14 12.8 70.04 14.1 67.49 14.1ZM87.39 0.1L87.39 0.1Q86.59 0.1 86.37-0.53 86.14-1.15 86.14-1.8L86.14-1.8Q86.14-4.15 87.04-6.85 87.94-9.55 89.39-12.03 90.84-14.5 92.54-16.1L92.54-16.1Q94.34-17.75 96.79-17.75L96.79-17.75Q97.79-17.75 98.77-17.53 99.74-17.3 100.69-16.9L100.69-16.9Q101.54-17.5 102.54-17.95 103.54-18.4 104.59-18.4L104.59-18.4Q104.84-18.4 104.99-18.1L104.99-18.1 104.99-17.95Q104.99-17.8 104.87-17.82 104.74-17.85 104.64-17.85L104.64-17.85Q103.84-17.85 102.89-16.63 101.94-15.4 100.99-13.5 100.04-11.6 99.27-9.5 98.49-7.4 98.02-5.65 97.54-3.9 97.54-3L97.54-3Q97.54-2.65 97.67-2.2 97.79-1.75 98.24-1.75L98.24-1.75Q98.49-1.75 98.67-1.85 98.84-1.95 99.04-2.05L99.04-2.05Q100.14-2.7 101.22-3.83 102.29-4.95 103.22-6.28 104.14-7.6 104.74-8.7L104.74-8.7Q104.79-8.65 104.79-8.5L104.79-8.5Q104.79-8.2 104.44-7.63 104.09-7.05 103.64-6.4 103.19-5.75 102.82-5.25 102.44-4.75 102.44-4.65L102.44-4.65Q102.39-4.3 102.29-4.08 102.19-3.85 101.99-3.5L101.99-3.5Q101.34-2.85 100.34-2 99.34-1.15 98.27-0.53 97.19 0.1 96.19 0.1L96.19 0.1Q94.64 0.1 94.64-1.55L94.64-1.55Q94.64-2.55 95.07-3.88 95.49-5.2 96.07-6.53 96.64-7.85 97.09-8.75L97.09-8.75Q97.09-8.8 97.09-8.9 97.09-9 97.04-9L97.04-9Q96.99-9 96.89-8.9L96.89-8.9Q96.29-8.1 95.14-6.6 93.99-5.1 92.62-3.58 91.24-2.05 89.84-0.98 88.44 0.1 87.39 0.1ZM89.59-2.05L89.59-2.05Q90.14-2.05 90.97-2.78 91.79-3.5 92.72-4.53 93.64-5.55 94.37-6.5 95.09-7.45 95.39-7.9L95.39-7.9Q95.99-8.8 96.77-10.15 97.54-11.5 98.12-12.95 98.69-14.4 98.69-15.4L98.69-15.4Q98.69-16.95 97.14-16.95L97.14-16.95Q96.24-16.95 95.24-16.15 94.24-15.35 93.64-14.7L93.64-14.7Q92.99-13.9 92.17-12.4 91.34-10.9 90.64-9.15 89.94-7.4 89.47-5.8 88.99-4.2 88.99-3.15L88.99-3.15Q88.99-2.85 89.09-2.45 89.19-2.05 89.59-2.05Z" opacity="1" transform="matrix(1,0,0,1,0,0)" fill="#ffffff" class="wordmark-text-0" data-fill-palette-color="primary" id="text-0"/></svg></g></svg></g></svg></g></svg></g></svg></g><defs/></svg></g></svg></g></g></g></g></svg>